# xmcd
#
# Track frame offsets: 
#        150
#        17308
#        52742
#        80813
#
# Disc length: 1718 seconds
#
# Revision: 0
# Processed by: cddbd v1.5.2PL0 Copyright (c) Steve Scherf et al.
# Submitted via: ExactAudioCopy v1.0b1
#
DISCID=2006b404
DTITLE=LeAnn Rimes - And It Feels Like [CDS)
DYEAR=2006
DGENRE=Pop
TTITLE0=And It Feels Like (Album Version)
TTITLE1=And It Feels Like (Friday Night Posse Remix)
TTITLE2=I Need You (Graham Stack Radio Edit)
TTITLE3=And It Feels Like (Video)
EXTD=
EXTT0=
EXTT1=
EXTT2=
EXTT3=
PLAYORDER=
